Coordinates
version=1
nRows=11
nColumns=44
inDegrees=no
Units are S.I. units (second, meters, Newtons, ...)
If the header above contains a line with 'inDegrees', this indicates whether rotational values are in degrees (yes) or radians (no).
endheader
time	pelvis_tilt	pelvis_list	pelvis_rotation	pelvis_tx	pelvis_ty	pelvis_tz	hip_flexion_r	hip_adduction_r	hip_rotation_r	knee_angle_r	knee_frontal_r	knee_adduction_r	knee_angle_r_beta	ankle_angle_r	subtalar_angle_r	mtp_angle_r	hip_flexion_l	hip_adduction_l	hip_rotation_l	knee_angle_l	knee_frontal_l	knee_adduction_l	knee_angle_l_beta	ankle_angle_l	subtalar_angle_l	mtp_angle_l	lumbar_extension	lumbar_bending	lumbar_rotation	arm_flex_r	arm_add_r	arm_rot_r	elbow_flex_r	pro_sup_r	wrist_flex_r	wrist_dev_r	arm_flex_l	arm_add_l	arm_rot_l	elbow_flex_l	pro_sup_l	wrist_flex_l	wrist_dev_l
    2.00000000000000	   -0.12184405265508	    0.03282376534461	   -0.11332939438186	    0.81450469893231	    0.96823678872243	    0.47415981323230	    0.51978876344663	   -0.03889528866036	    0.10968733145297	    1.20435598944184	    0.00000000000000	    0.00000000000000	    1.20435598944184	   -0.01481499360616	   -0.08433919693494	   -0.23322482551725	    0.23645562970420	    0.04660936581895	    0.01518895786025	    0.32390595197128	    0.00000000000000	    0.00000000000000	    0.32390595197128	    0.14405854334218	   -0.08733726238291	   -0.19134548357610	   -0.06667140765576	    0.00648527245170	    0.00005149938451	   -0.03069155233502	   -0.26227608767260	    0.00623380798632	    0.59288841006436	    1.57079632696943	    0.00000000000000	    0.00000000000000	   -0.08945433549814	   -0.34704077833914	    0.12097339531120	    0.73240026681630	    1.57079632696943	    0.00000000000000	    0.00000000000000
    2.00500000000000	   -0.12223372447188	    0.03179019763532	   -0.11152477553304	    0.81427966023519	    0.96873055965857	    0.47413681101420	    0.52867756100069	   -0.03638307279252	    0.10791063304268	    1.19160319557252	    0.00000000000000	    0.00000000000000	    1.19160319557252	   -0.00587703392702	   -0.08247586775535	   -0.23468305145524	    0.22799850325140	    0.04619145737122	    0.01648308079622	    0.31968847885899	    0.00000000000000	    0.00000000000000	    0.31968847885899	    0.14570839043115	   -0.08370487698479	   -0.19344668676824	   -0.06624798738781	    0.00847257628385	    0.00004978418423	   -0.03723101530241	   -0.26105053935016	    0.00322973600366	    0.58575160177764	    1.57079632696943	    0.00000000000000	    0.00000000000000	   -0.08190741336965	   -0.35035795093213	    0.12072800003057	    0.73977319859617	    1.57079632696943	    0.00000000000000	    0.00000000000000
    2.01000000000000	   -0.12258725060954	    0.03086382795741	   -0.10958227753041	    0.81405650725691	    0.96918768506215	    0.47412357190622	    0.53706870449211	   -0.03414946023222	    0.10599814400122	    1.17759368533120	    0.00000000000000	    0.00000000000000	    1.17759368533120	    0.00227722315283	   -0.08097310481222	   -0.23563452178589	    0.21951730326374	    0.04587247055575	    0.01787087294917	    0.31544525504309	    0.00000000000000	    0.00000000000000	    0.31544525504309	    0.14728016018516	   -0.08009536742132	   -0.19565704651800	   -0.06585323395287	    0.01027862294301	    0.00004784223306	   -0.04387296537535	   -0.25977769458085	   -0.00004074483798	    0.57895702013321	    1.57079632696943	    0.00000000000000	    0.00000000000000	   -0.07439253777906	   -0.35374676049837	    0.12060248296857	    0.74741137256240	    1.57079632696943	    0.00000000000000	    0.00000000000000
    2.01500000000000	   -0.12290137911176	    0.03005230932905	   -0.10752134393887	    0.81383537425966	    0.96960677359515	    0.47412092261583	    0.54494771826879	   -0.03220270154946	    0.10398545507214	    1.16232718139633	    0.00000000000000	    0.00000000000000	    1.16232718139633	    0.00964241642074	   -0.07981994165702	   -0.23610598352293	    0.21100733166697	    0.04565456908277	    0.01934187779094	    0.31117749169170	    0.00000000000000	    0.00000000000000	    0.31117749169170	    0.14877845048592	   -0.07652373196971	   -0.19798397258041	   -0.06549348865492	    0.01189143648152	    0.00004572634639	   -0.05059006348047	   -0.25845412526201	   -0.00355049628949	    0.57249569569852	    1.57079632696943	    0.00000000000000	    0.00000000000000	   -0.06692131223663	   -0.35720150887070	    0.12058927969622	    0.75531154549592	    1.57079632696943	    0.00000000000000	    0.00000000000000
    2.02000000000000	   -0.12317399425856	    0.02936136211052	   -0.10536061686903	    0.81361653810284	    0.96998663495984	    0.47412970598340	    0.55229950091270	   -0.03054694334025	    0.10190762658541	    1.14579811598526	    0.00000000000000	    0.00000000000000	    1.14579811598526	    0.01622213406018	   -0.07899813802677	   -0.23613716589161	    0.20246478292659	    0.04553808429925	    0.02088608603745	    0.30688659183517	    0.00000000000000	    0.00000000000000	    0.30688659183517	    0.15020548574410	   -0.07300368465982	   -0.20043557721136	   -0.06517339034954	    0.01330176582144	    0.00004349356897	   -0.05735649024152	   -0.25707750928590	   -0.00727104613534	    0.56635854216161	    1.57079632696943	    0.00000000000000	    0.00000000000000	   -0.05950491545249	   -0.36071602095103	    0.12068076459622	    0.76346812452724	    1.57079632696943	    0.00000000000000	    0.00000000000000
    2.02500000000000	   -0.12340415028702	    0.02879507388181	   -0.10311767203386	    0.81340042949459	    0.97032625630196	    0.47415075509898	    0.55910889472676	   -0.02918282295399	    0.09979889354189	    1.12799695678811	    0.00000000000000	    0.00000000000000	    1.12799695678811	    0.02202841974768	   -0.07848339571254	   -0.23577679985350	    0.19388692988958	    0.04552192293692	    0.02249411607409	    0.30257434332549	    0.00000000000000	    0.00000000000000	    0.30257434332549	    0.15156123296246	   -0.06954760002933	   -0.20302015064973	   -0.06489574332424	    0.01450276217872	    0.00004120323733	   -0.06414820705478	   -0.25564655433950	   -0.01117315461184	    0.56053638826300	    1.57079632696943	    0.00000000000000	    0.00000000000000	   -0.05215414289073	   -0.36428380149982	    0.12086936600860	    0.77187348109871	    1.57079632696943	    0.00000000000000	    0.00000000000000
    2.03000000000000	   -0.12359206779991	    0.02835623542635	   -0.10080881293599	    0.81318763648203	    0.97062477623124	    0.47418486685448	    0.56536128579141	   -0.02810812612752	    0.09769240109277	    1.10891172531945	    0.00000000000000	    0.00000000000000	    1.10891172531945	    0.02708124876066	   -0.07824661601664	   -0.23507888890783	    0.18527227269123	    0.04560400852329	    0.02415735606980	    0.29824309708238	    0.00000000000000	    0.00000000000000	    0.29824309708238	    0.15284357668263	   -0.06616650263128	   -0.20574564886017	   -0.06466145499780	    0.01548961105684	    0.00003891507364	   -0.07094314575764	   -0.25416090889373	   -0.01522738292238	    0.55502001920624	    1.57079632696943	    0.00000000000000	    0.00000000000000	   -0.04487944690768	   -0.36789817748664	    0.12114764503116	    0.78051826873796	    1.57079632696943	    0.00000000000000	    0.00000000000000
    2.03500000000000	   -0.12373909895586	    0.02804669136878	   -0.09844892396849	    0.81297889998787	    0.97088145757120	    0.47423277578378	    0.57104322223685	   -0.02731847002636	    0.09561996837960	    1.08852967428358	    0.00000000000000	    0.00000000000000	    1.08852967428358	    0.03140797687065	   -0.07825513577945	   -0.23409936690499	    0.17662065748253	    0.04578173166981	    0.02586806538116	    0.29389593499848	    0.00000000000000	    0.00000000000000	    0.29389593499848	    0.15404855327494	   -0.06287009239511	   -0.20861920590204	   -0.06446953999499	    0.01625914326950	    0.00003668741099	   -0.07772132857389	   -0.25262106862881	   -0.01940464101343	    0.54980023197007	    1.57079632696943	    0.00000000000000	    0.00000000000000	   -0.03769097082982	   -0.37155242036058	    0.12150833930525	    0.78939172918509	    1.57079632696943	    0.00000000000000	    0.00000000000000
    2.04000000000000	   -0.12384766931734	    0.02786768301801	   -0.09605137959649	    0.81277510156290	    0.97109566003248	    0.47429512916616	    0.57614303883823	   -0.02680797356721	    0.09361187688087	    1.06683908734693	    0.00000000000000	    0.00000000000000	    1.06683908734693	    0.03504276759008	   -0.07847388314229	   -0.23289324144871	    0.16793337288622	    0.04605238293464	    0.02761943298356	    0.28953683143425	    0.00000000000000	    0.00000000000000	    0.28953683143425	    0.15517064440725	   -0.05966679193358	   -0.21164668313434	   -0.06431718327527	    0.01680945049229	    0.00003457562292	   -0.08446492182998	   -0.25102828553069	   -0.02367669137477	    0.54486790452374	    1.57079632696943	    0.00000000000000	    0.00000000000000	   -0.03059857358285	   -0.37523984375542	    0.12194437428916	    0.79848197404641	    1.57079632696943	    0.00000000000000	    0.00000000000000
    2.04500000000000	   -0.12392120450580	    0.02782016056880	   -0.09362800436074	    0.81257724401584	    0.97126681413522	    0.47437246444011	    0.58065147484555	   -0.02656987781431	    0.09169667731923	    1.04383116123646	    0.00000000000000	    0.00000000000000	    1.04383116123646	    0.03802600497417	   -0.07886640252088	   -0.23151228369066	    0.15921323101900	    0.04641354141252	    0.02940559169798	    0.28517081072249	    0.00000000000000	    0.00000000000000	    0.28517081072249	    0.15620312809833	   -0.05656379902713	   -0.21483226790370	   -0.06419985261455	    0.01713953121061	    0.00003263079396	   -0.09115822862805	   -0.24938448544390	   -0.02801658804608	    0.54021407468003	    1.57079632696943	    0.00000000000000	    0.00000000000000	   -0.02361184320625	   -0.37895387353646	    0.12244884586156	    0.80777623313051	    1.57079632696943	    0.00000000000000	    0.00000000000000
    2.05000000000000	   -0.12396404822801	    0.02790504230073	   -0.09118907654659	    0.81238642611710	    0.97139439786135	    0.47446518996513	    0.58456226904456	   -0.02659708191720	    0.08990100734074	    1.01950192668342	    0.00000000000000	    0.00000000000000	    1.01950192668342	    0.04040369913229	   -0.07939570971225	   -0.23000329031864	    0.15046463661444	    0.04686339305869	    0.03122158899130	    0.28080410096187	    0.00000000000000	    0.00000000000000	    0.28080410096187	    0.15713848350411	   -0.05356712780239	   -0.21817813559481	   -0.06411145061417	    0.01724899222723	    0.00003089863483	   -0.09778762682072	   -0.24769219820303	   -0.03239903556350	    0.53583002067559	    1.57079632696943	    0.00000000000000	    0.00000000000000	   -0.01674009938144	   -0.38268808862121	    0.12301497961858	    0.81726106535447	    1.57079632696943	    0.00000000000000	    0.00000000000000
